<?xml version="1.0" encoding="utf-8"?>
<!-- Generator: Adobe Illustrator 27.5.0, SVG Export Plug-In . SVG Version: 6.00 Build 0)  -->
<svg version="1.1" xmlns="http://www.w3.org/2000/svg" xmlns:xlink="http://www.w3.org/1999/xlink" x="0px" y="0px"
	 viewBox="0 0 500 500" style="enable-background:new 0 0 500 500;" xml:space="preserve">
<g id="Background_Simple">
	<g>
		<path style="fill:#92E3A9;" d="M465.619,254.083c-5.466-43.402-22.638-86.578-44.984-121.885
			c-29.068-45.928-75.511-82.776-130.612-89.606c-38.999-4.834-83.467,7.479-113.627,33.89
			c-14.997,13.132-26.553,29.471-33.376,48.202c-7.381,20.265-10.527,43.487-26.432,59.395
			c-19.114,19.118-45.511,28.265-65.259,46.513c-43.784,40.461-31.002,113.548,5.882,153.918
			c33.2,36.338,82.459,29.616,126.75,36.466c33.622,5.199,62.721,24.159,97.083,27.747c49.714,5.191,101.039-11.453,137.503-45.823
			C461.005,362.882,472.448,308.306,465.619,254.083z"/>
		<path style="opacity:0.7;fill:#FFFFFF;" d="M465.619,254.083c-5.466-43.402-22.638-86.578-44.984-121.885
			c-29.068-45.928-75.511-82.776-130.612-89.606c-38.999-4.834-83.467,7.479-113.627,33.89
			c-14.997,13.132-26.553,29.471-33.376,48.202c-7.381,20.265-10.527,43.487-26.432,59.395
			c-19.114,19.118-45.511,28.265-65.259,46.513c-43.784,40.461-31.002,113.548,5.882,153.918
			c33.2,36.338,82.459,29.616,126.75,36.466c33.622,5.199,62.721,24.159,97.083,27.747c49.714,5.191,101.039-11.453,137.503-45.823
			C461.005,362.882,472.448,308.306,465.619,254.083z"/>
	</g>
</g>
<g id="Page">
	<g>
		<path style="fill:none;stroke:#263238;stroke-width:2;stroke-linecap:round;stroke-linejoin:round;stroke-miterlimit:10;" d="
			M438.572,323.855H83.428c-5.207,0-9.428-4.221-9.428-9.427V73.283c0-5.207,4.221-9.428,9.428-9.428h355.145
			c5.207,0,9.428,4.221,9.428,9.428v241.145C448,319.634,443.779,323.855,438.572,323.855z"/>
		<rect x="89.27" y="90.226" style="fill:#9E9E9E;" width="343.3" height="30.27"/>
		<g>
			<path style="fill:#9E9E9E;" d="M273.839,81.367h-11.074c-2.446,0-4.43-1.983-4.43-4.43l0,0c0-2.447,1.983-4.43,4.43-4.43h11.074
				c2.447,0,4.43,1.983,4.43,4.43l0,0C278.269,79.383,276.286,81.367,273.839,81.367z"/>
			<path style="fill:#9E9E9E;" d="M311.492,81.367h-11.074c-2.446,0-4.43-1.983-4.43-4.43l0,0c0-2.447,1.983-4.43,4.43-4.43h11.074
				c2.446,0,4.43,1.983,4.43,4.43l0,0C315.921,79.383,313.938,81.367,311.492,81.367z"/>
			<path style="fill:#9E9E9E;" d="M349.144,81.367H338.07c-2.447,0-4.43-1.983-4.43-4.43l0,0c0-2.447,1.983-4.43,4.43-4.43h11.074
				c2.446,0,4.43,1.983,4.43,4.43l0,0C353.574,79.383,351.59,81.367,349.144,81.367z"/>
			<path style="fill:#9E9E9E;" d="M386.796,81.367h-11.074c-2.446,0-4.43-1.983-4.43-4.43l0,0c0-2.447,1.983-4.43,4.43-4.43h11.074
				c2.446,0,4.43,1.983,4.43,4.43l0,0C391.226,79.383,389.243,81.367,386.796,81.367z"/>
			<path style="fill:#9E9E9E;" d="M424.448,81.367h-11.074c-2.447,0-4.43-1.983-4.43-4.43l0,0c0-2.447,1.983-4.43,4.43-4.43h11.074
				c2.446,0,4.43,1.983,4.43,4.43l0,0C428.878,79.383,426.895,81.367,424.448,81.367z"/>
		</g>
		<g>
			<rect x="177.125" y="130.093" style="fill:#9E9E9E;" width="255.445" height="149.133"/>
			<polygon style="fill:#FFFFFF;" points="432.57,216.472 389.011,161.839 326.995,229.761 278.269,198.015 177.125,279.226 
				432.57,279.226 			"/>
			
				<ellipse transform="matrix(0.7896 -0.6136 0.6136 0.7896 -30.9445 237.1163)" style="fill:#FFFFFF;" cx="330.318" cy="163.685" rx="18.088" ry="18.088"/>
		</g>
		<g>
			
				<line style="fill:none;stroke:#9E9E9E;stroke-linecap:round;stroke-linejoin:round;stroke-miterlimit:10;" x1="90.746" y1="147.074" x2="154.238" y2="147.074"/>
			
				<line style="fill:none;stroke:#9E9E9E;stroke-linecap:round;stroke-linejoin:round;stroke-miterlimit:10;" x1="90.746" y1="157.41" x2="154.238" y2="157.41"/>
			
				<line style="fill:none;stroke:#9E9E9E;stroke-linecap:round;stroke-linejoin:round;stroke-miterlimit:10;" x1="90.746" y1="167.745" x2="154.238" y2="167.745"/>
			
				<line style="fill:none;stroke:#9E9E9E;stroke-linecap:round;stroke-linejoin:round;stroke-miterlimit:10;" x1="90.746" y1="178.081" x2="154.238" y2="178.081"/>
		</g>
		<g>
			
				<line style="fill:none;stroke:#9E9E9E;stroke-linecap:round;stroke-linejoin:round;stroke-miterlimit:10;" x1="90.746" y1="201.706" x2="154.238" y2="201.706"/>
			
				<line style="fill:none;stroke:#9E9E9E;stroke-linecap:round;stroke-linejoin:round;stroke-miterlimit:10;" x1="90.746" y1="212.042" x2="154.238" y2="212.042"/>
			
				<line style="fill:none;stroke:#9E9E9E;stroke-linecap:round;stroke-linejoin:round;stroke-miterlimit:10;" x1="90.746" y1="222.378" x2="154.238" y2="222.378"/>
			
				<line style="fill:none;stroke:#9E9E9E;stroke-linecap:round;stroke-linejoin:round;stroke-miterlimit:10;" x1="90.746" y1="232.714" x2="154.238" y2="232.714"/>
		</g>
		<path style="fill:#92E3A9;" d="M146.486,279.964h-47.25c-4.281,0-7.752-3.471-7.752-7.752v-4.43c0-4.281,3.471-7.752,7.752-7.752
			h47.25c4.281,0,7.752,3.471,7.752,7.752v4.43C154.238,276.493,150.767,279.964,146.486,279.964z"/>
		<path style="fill:#9E9E9E;" d="M246.833,311.515c0-2.069-1.677-3.746-3.746-3.746c-2.069,0-3.746,1.677-3.746,3.746
			s1.677,3.746,3.746,3.746C245.155,315.261,246.833,313.584,246.833,311.515z"/>
		<circle style="fill:#9E9E9E;" cx="261.469" cy="311.515" r="3.746"/>
		<path style="fill:#9E9E9E;" d="M283.598,311.515c0-2.069-1.677-3.746-3.746-3.746c-2.069,0-3.746,1.677-3.746,3.746
			s1.677,3.746,3.746,3.746C281.92,315.261,283.598,313.584,283.598,311.515z"/>
	</g>
</g>
<g id="Graphics">
	<g>
		<g>
			
				<rect x="125.942" y="339.721" style="fill:none;stroke:#263238;stroke-linecap:round;stroke-linejoin:round;stroke-miterlimit:10;" width="76.721" height="42.121"/>
			
				<line style="fill:none;stroke:#263238;stroke-linecap:round;stroke-linejoin:round;stroke-miterlimit:10;" x1="133.464" y1="351.755" x2="192.885" y2="351.755"/>
			
				<line style="fill:none;stroke:#263238;stroke-linecap:round;stroke-linejoin:round;stroke-miterlimit:10;" x1="133.464" y1="360.029" x2="192.885" y2="360.029"/>
			
				<line style="fill:none;stroke:#263238;stroke-linecap:round;stroke-linejoin:round;stroke-miterlimit:10;" x1="133.464" y1="368.303" x2="192.885" y2="368.303"/>
		</g>
		<g>
			<g>
				
					<ellipse transform="matrix(0.9714 -0.2373 0.2373 0.9714 -76.1315 89.1135)" style="fill:none;stroke:#263238;stroke-linecap:round;stroke-linejoin:round;stroke-miterlimit:10;" cx="332.082" cy="360.781" rx="11.181" ry="11.181"/>
				<polygon style="fill:none;stroke:#263238;stroke-linecap:round;stroke-linejoin:round;stroke-miterlimit:10;" points="
					340.08,360.73 328.065,353.793 328.065,367.667 				"/>
			</g>
			<g>
				
					<rect x="293.721" y="339.721" style="fill:none;stroke:#263238;stroke-linecap:round;stroke-linejoin:round;stroke-miterlimit:10;" width="76.721" height="42.121"/>
			</g>
			<path style="fill:none;stroke:#263238;stroke-linecap:round;stroke-linejoin:round;stroke-miterlimit:10;" d="M367,380h-67.768
				c-0.901,0-1.631-0.73-1.631-1.631l0,0c0-0.901,0.73-1.631,1.631-1.631H367c0.901,0,1.631,0.73,1.631,1.631l0,0
				C368.631,379.27,367.901,380,367,380z"/>
		</g>
		<g>
			<g>
				<line style="fill:none;stroke:#263238;stroke-linecap:round;stroke-linejoin:round;" x1="124" y1="365" x2="123" y2="365"/>
				
					<line style="fill:none;stroke:#263238;stroke-linecap:round;stroke-linejoin:round;stroke-dasharray:2.0769,2.0769;" x1="120.923" y1="365" x2="97.038" y2="365"/>
				<polyline style="fill:none;stroke:#263238;stroke-linecap:round;stroke-linejoin:round;" points="96,365 95,365 95,364 				"/>
				
					<line style="fill:none;stroke:#263238;stroke-linecap:round;stroke-linejoin:round;stroke-dasharray:2.0526,2.0526;" x1="95" y1="361.947" x2="95" y2="326.026"/>
				<line style="fill:none;stroke:#263238;stroke-linecap:round;stroke-linejoin:round;" x1="95" y1="325" x2="95" y2="324"/>
			</g>
		</g>
		<g>
			<g>
				<line style="fill:none;stroke:#263238;stroke-linecap:round;stroke-linejoin:round;" x1="332" y1="340" x2="332" y2="339"/>
				
					<line style="fill:none;stroke:#263238;stroke-linecap:round;stroke-linejoin:round;stroke-dasharray:2,2;" x1="332" y1="337" x2="332" y2="326"/>
				<line style="fill:none;stroke:#263238;stroke-linecap:round;stroke-linejoin:round;" x1="332" y1="325" x2="332" y2="324"/>
			</g>
		</g>
		<g>
			<g>
				<path style="fill:none;stroke:#263238;stroke-linecap:round;stroke-linejoin:round;stroke-miterlimit:10;" d="M415.729,38.455
					v-4.558h-3.374c-0.246-1.019-0.647-1.977-1.182-2.846l2.388-2.388l-3.223-3.223l-2.388,2.388
					c-0.869-0.535-1.825-0.937-2.846-1.18v-3.375h-4.559v3.375c-1.021,0.243-1.977,0.646-2.846,1.18l-2.388-2.388l-3.223,3.223
					l2.388,2.388c-0.535,0.869-0.937,1.825-1.18,2.846h-3.376v4.558h3.376c0.243,1.021,0.646,1.977,1.18,2.846l-2.388,2.388
					l3.223,3.223l2.388-2.388c0.869,0.535,1.825,0.937,2.846,1.18v3.375h4.559v-3.375c1.021-0.243,1.977-0.646,2.846-1.18
					l2.388,2.388l3.223-3.223l-2.388-2.388c0.534-0.869,0.936-1.827,1.182-2.846H415.729z M402.825,42.035
					c-3.236,0-5.859-2.623-5.859-5.859s2.623-5.859,5.859-5.859c3.236,0,5.859,2.623,5.859,5.859S406.061,42.035,402.825,42.035z"/>
				<path style="fill:none;stroke:#263238;stroke-linecap:round;stroke-linejoin:round;stroke-miterlimit:10;" d="M448.091,45.863
					l2.39-5.845l-4.326-1.769c0.219-1.435,0.207-2.874-0.023-4.268l4.314-1.81l-2.443-5.823l-4.314,1.81
					c-0.834-1.141-1.849-2.158-3.03-3.005l1.77-4.328l-5.845-2.39l-1.77,4.328c-1.436-0.223-2.873-0.208-4.267,0.022l-1.81-4.314
					l-5.823,2.443l1.81,4.314c-1.141,0.834-2.158,1.849-3.005,3.03l-4.328-1.77L415,32.333l4.328,1.77
					c-0.223,1.436-0.208,2.873,0.022,4.267l-4.314,1.81l2.443,5.823l4.314-1.81c0.834,1.141,1.849,2.158,3.03,3.005l-1.77,4.328
					l5.845,2.39l1.77-4.328c1.436,0.223,2.873,0.208,4.267-0.021l1.81,4.314l5.823-2.443l-1.81-4.314
					c1.141-0.834,2.158-1.852,3.007-3.029L448.091,45.863z M429.669,43.688c-4.149-1.696-6.137-6.435-4.441-10.584
					c1.696-4.149,6.435-6.137,10.584-4.441c4.149,1.696,6.137,6.435,4.441,10.584C438.556,43.397,433.818,45.385,429.669,43.688z"/>
			</g>
			<g>
				
					<polyline style="fill:none;stroke:#263238;stroke-linecap:round;stroke-linejoin:round;stroke-miterlimit:10;stroke-dasharray:2;" points="
					73.907,122.027 50.531,122.027 50.531,44.305 143.644,44.305 143.644,62.503 				"/>
				
					<rect x="57.457" y="52" style="fill:none;stroke:#263238;stroke-linecap:round;stroke-linejoin:round;stroke-miterlimit:10;stroke-dasharray:2;" width="11.543" height="11.543"/>
			</g>
			
				<polyline style="fill:none;stroke:#263238;stroke-linecap:round;stroke-linejoin:round;stroke-miterlimit:10;stroke-dasharray:2;" points="
				382.068,36.339 326.286,36.339 326.286,63.067 			"/>
			
				<polyline style="fill:none;stroke:#263238;stroke-linecap:round;stroke-linejoin:round;stroke-miterlimit:10;stroke-dasharray:2;" points="
				450.633,36.92 460.511,36.92 460.511,149.645 448.89,149.645 			"/>
		</g>
	</g>
</g>
<g id="Floor">
	<ellipse style="fill:#C9C9C9;" cx="258.698" cy="451.354" rx="196.68" ry="14.085"/>
</g>
<g id="Plant">
	<g>
		<path style="fill:#263238;" d="M384.514,312.197c2.221,0.97,7.655,0.848,7.659,0.848c0.056-0.001-1.168-3.557-1.271-3.772
			c-1.192-2.494-4.962-6.612-8.03-6.197c-2.21,0.299-3.439,2.51-2.94,4.591C380.442,309.791,382.622,311.37,384.514,312.197z"/>
		<path style="fill:#263238;" d="M455.688,293.702c-3.078-0.331-6.735,3.886-7.859,6.412c-0.097,0.219-1.225,3.806-1.168,3.805
			c0,0,0.053,0,0.066-0.001c-0.583,0.661-1.199,1.377-1.858,2.173c-1.204,1.479-2.551,3.161-3.893,5.091
			c-1.346,1.925-2.755,4.054-4.036,6.43c-1.288,2.38-2.52,4.95-3.448,7.762c-0.011,0.032-0.017,0.066-0.028,0.098
			c0.016-0.907-0.024-3.444-0.049-3.638c-0.355-2.741-2.653-7.829-5.697-8.392c-2.193-0.405-4.05,1.313-4.225,3.445
			c-0.178,2.178,1.401,4.358,2.941,5.733c1.736,1.551,6.557,3.053,6.941,3.172c-0.859,2.686-1.522,5.512-2.036,8.409
			c-0.296,1.656-0.542,3.333-0.767,5.018c-0.012-0.785-0.028-1.486-0.04-1.584c-0.356-2.741-2.653-7.829-5.697-8.392
			c-2.193-0.406-4.05,1.313-4.225,3.445c-0.179,2.178,1.401,4.358,2.94,5.733c1.563,1.395,5.646,2.759,6.732,3.105
			c-0.08,0.647-0.167,1.293-0.244,1.94c-0.372,3.106-0.728,6.208-1.172,9.239c-0.155,1.069-0.348,2.115-0.537,3.162
			c-0.011-0.697-0.026-1.283-0.037-1.372c-0.355-2.742-2.653-7.829-5.697-8.392c-2.193-0.405-4.05,1.312-4.225,3.445
			c-0.178,2.177,1.401,4.358,2.941,5.733c1.49,1.332,5.249,2.624,6.537,3.042c-0.226,1.067-0.45,2.136-0.717,3.16
			c-0.198,0.695-0.341,1.378-0.578,2.065c-0.221,0.685-0.44,1.363-0.657,2.035c-0.465,1.278-0.937,2.6-1.422,3.835
			c-0.331,0.862-0.662,1.677-0.993,2.499c0.167-1.062,0.452-3.147,0.456-3.324c0.042-1.836-0.61-4.821-1.908-6.92
			c0.008-0.271-0.008-0.542-0.051-0.81c-0.339-2.112-2.324-3.681-4.479-3.107c-2.991,0.796-4.889,6.047-5.03,8.807
			c-0.008,0.163,0.098,1.94,0.184,3.06c-0.151-0.651-0.289-1.284-0.452-1.952c-0.314-1.323-0.666-2.634-1.039-4.046
			c-0.204-0.675-0.411-1.357-0.619-2.047c-0.192-0.688-0.482-1.39-0.723-2.092c-0.592-1.617-1.27-3.228-1.989-4.835
			c1.158-0.278,5.255-1.322,6.901-2.585c1.638-1.257,3.375-3.313,3.36-5.498c-0.015-2.14-1.739-3.992-3.956-3.751
			c-3.078,0.334-5.748,5.237-6.307,7.944c-0.035,0.169-0.217,2.156-0.296,3.25c-0.44-0.963-0.874-1.926-1.351-2.885
			c-1.375-2.77-2.854-5.531-4.317-8.292c-0.448-0.846-0.885-1.693-1.326-2.54c0.413-0.094,5.311-1.231,7.153-2.645
			c1.638-1.257,3.375-3.313,3.36-5.498c-0.016-2.139-1.739-3.991-3.956-3.75c-3.078,0.334-5.748,5.236-6.307,7.944
			c-0.042,0.204-0.3,3.064-0.33,3.795c-0.969-1.866-1.918-3.734-2.778-5.614c-1.191-2.592-2.215-5.201-3.021-7.802
			c0.193-0.044,5.309-1.207,7.197-2.655c1.638-1.257,3.375-3.313,3.359-5.498c-0.015-2.14-1.739-3.991-3.956-3.75
			c-3.078,0.334-5.748,5.236-6.307,7.943c-0.044,0.213-0.32,3.29-0.33,3.851c-0.048-0.155-0.114-0.31-0.16-0.465
			c-0.825-2.788-1.274-5.593-1.566-8.239c-0.173-1.537-0.251-3.016-0.296-4.457c0.975-0.119,5.426-0.711,7.268-1.827
			c1.766-1.069,3.719-2.922,3.943-5.096c0.219-2.128-1.291-4.158-3.521-4.163c-3.096-0.006-6.288,4.574-7.141,7.203
			c-0.046,0.143-0.357,1.649-0.568,2.749c-0.01-0.65-0.033-1.322-0.03-1.945c0.004-2.341,0.152-4.484,0.299-6.381
			c0.092-1.078,0.197-2.051,0.304-2.961c0.896-0.616,4.476-3.143,5.578-4.949c1.075-1.763,1.953-4.307,1.151-6.34
			c-0.786-1.99-3.062-3.096-5.043-2.072c-2.75,1.422-3.473,6.957-3.019,9.684c0.04,0.235,1.078,3.85,1.125,3.818
			c0,0,0.044-0.03,0.054-0.037c-0.121,0.873-0.24,1.811-0.35,2.837c-0.188,1.898-0.384,4.044-0.439,6.394
			c-0.061,2.348-0.061,4.901,0.181,7.59c0.239,2.695,0.628,5.519,1.406,8.376c0.009,0.032,0.022,0.065,0.031,0.097
			c-0.487-0.765-1.92-2.859-2.049-3.007c-1.808-2.09-6.532-5.066-9.381-3.857c-2.052,0.872-2.654,3.329-1.623,5.205
			c1.053,1.915,3.573,2.861,5.615,3.159c2.304,0.336,7.153-1.07,7.539-1.184c0.766,2.715,1.771,5.438,2.941,8.137
			c0.667,1.544,1.387,3.079,2.128,4.609c-0.442-0.648-0.843-1.224-0.907-1.299c-1.809-2.09-6.532-5.066-9.381-3.856
			c-2.053,0.872-2.654,3.329-1.623,5.204c1.052,1.915,3.572,2.862,5.615,3.16c2.073,0.302,6.231-0.813,7.328-1.124
			c0.291,0.584,0.574,1.17,0.867,1.753c1.404,2.796,2.818,5.58,4.12,8.353c0.46,0.977,0.876,1.956,1.297,2.935
			c-0.394-0.575-0.73-1.056-0.789-1.125c-1.809-2.09-6.532-5.066-9.381-3.856c-2.053,0.872-2.654,3.329-1.623,5.204
			c1.053,1.915,3.572,2.862,5.616,3.16c1.978,0.289,5.826-0.707,7.13-1.069c0.4,1.014,0.803,2.03,1.145,3.031
			c0.218,0.689,0.476,1.337,0.657,2.041c0.194,0.693,0.385,1.38,0.575,2.06c0.317,1.323,0.653,2.686,0.93,3.983
			c0.2,0.901,0.373,1.764,0.551,2.632c-0.446-0.978-1.36-2.874-1.454-3.024c-1.47-2.34-5.689-5.997-8.689-5.233
			c-2.161,0.551-3.128,2.889-2.393,4.898c0.751,2.052,3.098,3.37,5.072,3.974c2.174,0.664,6.987,0.057,7.587-0.023
			c0.289,1.438,0.556,2.84,0.786,4.166c0.81,4.597,1.311,8.456,1.622,11.157c0.055,0.48,0.102,0.909,0.146,1.312h-9.316
			l3.402,66.374h15.875l3.402-66.374h-8.68c0.064-0.133,0.125-0.258,0.192-0.398c1.191-2.481,2.843-6.046,4.626-10.409
			c0.567-1.377,1.145-2.86,1.724-4.389c0.583,0.122,5.347,1.089,7.567,0.588c2.013-0.455,4.452-1.594,5.354-3.585
			c0.883-1.949,0.093-4.353-2.022-5.063c-2.934-0.986-7.413,2.347-9.054,4.571c-0.097,0.131-0.989,1.672-1.535,2.654
			c0.234-0.626,0.467-1.231,0.699-1.878c0.469-1.276,0.898-2.564,1.366-3.948c0.202-0.676,0.407-1.359,0.613-2.049
			c0.219-0.68,0.364-1.426,0.552-2.144c0.399-1.676,0.721-3.393,1.008-5.13c1.119,0.407,5.112,1.797,7.181,1.651
			c2.059-0.145,4.643-0.901,5.835-2.733c1.168-1.793,0.751-4.288-1.231-5.311c-2.751-1.419-7.684,1.197-9.643,3.147
			c-0.122,0.121-1.371,1.678-2.04,2.547c0.164-1.046,0.333-2.088,0.465-3.152c0.381-3.069,0.671-6.188,0.974-9.297
			c0.092-0.953,0.196-1.901,0.296-2.85c0.396,0.149,5.108,1.903,7.425,1.74c2.059-0.144,4.643-0.901,5.835-2.732
			c1.168-1.793,0.751-4.288-1.231-5.311c-2.751-1.419-7.683,1.197-9.642,3.147c-0.148,0.147-1.941,2.39-2.369,2.983
			c0.221-2.091,0.46-4.173,0.78-6.215c0.437-2.819,1.022-5.561,1.784-8.175c0.185,0.07,5.094,1.923,7.467,1.756
			c2.06-0.145,4.643-0.901,5.836-2.733c1.167-1.793,0.751-4.288-1.231-5.311c-2.751-1.419-7.683,1.197-9.642,3.147
			c-0.153,0.153-2.082,2.567-2.4,3.03c0.046-0.155,0.076-0.322,0.123-0.476c0.85-2.78,2.022-5.367,3.239-7.736
			c0.704-1.378,1.454-2.655,2.212-3.881c0.879,0.439,4.918,2.4,7.07,2.486c2.063,0.082,4.714-0.386,6.1-2.075
			c1.358-1.654,1.218-4.18-0.64-5.414c-2.579-1.712-7.768,0.346-9.93,2.069c-0.117,0.094-1.207,1.178-1.989,1.98
			c0.35-0.548,0.702-1.121,1.048-1.639c1.295-1.95,2.601-3.656,3.77-5.158c0.672-0.848,1.295-1.602,1.887-2.302
			c1.087-0.019,5.467-0.152,7.382-1.051c1.868-0.878,4.005-2.515,4.458-4.652C459.194,296.119,457.906,293.941,455.688,293.702z
			 M421.611,376.391c-1.86,4.281-3.572,7.776-4.801,10.201c-0.248,0.489-0.471,0.921-0.678,1.32h-0.206
			c-0.06-0.473-0.128-0.991-0.208-1.572c-0.375-2.726-0.965-6.611-1.884-11.234c-0.287-1.461-0.623-3.017-0.983-4.612
			c0.362-0.144,2.414-0.974,4.233-1.99c1.584,1.716,5.644,3.724,6.17,3.979C422.702,373.842,422.151,375.158,421.611,376.391z"/>
		<path style="fill:#263238;" d="M439.471,313.392c0.048,0.03,0.988-3.611,1.021-3.848c0.381-2.738-0.492-8.252-3.279-9.598
			c-2.008-0.97-4.253,0.197-4.984,2.207c-0.747,2.053,0.2,4.573,1.322,6.306C434.868,310.494,439.468,313.389,439.471,313.392z"/>
	</g>
</g>
<g id="Character">
	<g>
		<g>
			<polygon style="fill:#FFFFFF;stroke:#263238;stroke-linecap:round;stroke-linejoin:round;stroke-miterlimit:10;" points="
				257.367,435.095 256.508,451.423 254.789,451.423 254.216,437.1 			"/>
			<path style="fill:#FFFFFF;stroke:#263238;stroke-linecap:round;stroke-linejoin:round;stroke-miterlimit:10;" d="
				M232.733,331.403l5.156,23.202c0,0-3.151,15.754,0.286,29.79c3.437,14.036,9.739,36.378,9.739,40.102
				c0,3.724-4.01,15.754-5.156,20.338c-1.146,4.583-2.864,4.869-3.437,7.447c-0.573,2.578,11.171,1.719,13.176,0.859
				c2.005-0.859,2.864-7.734,2.864-10.598c0-2.864,0.859-4.869,2.005-7.447c1.146-2.578,1.432-5.156,0-7.734
				c-1.432-2.578-1.719-4.583-1.719-5.442c0-0.859,3.724-43.539,3.724-55.57c0-12.031-0.286-25.78,0-27.499
				c0.286-1.719,0.859-4.583,0.859-4.583L232.733,331.403z"/>
			<path style="fill:#263238;stroke:#263238;stroke-linecap:round;stroke-linejoin:round;stroke-miterlimit:10;" d="
				M257.367,435.095c1.146-2.578,1.432-5.156,0-7.734c-0.194-0.348-0.363-0.684-0.517-1.01c-0.033,1.288-0.127,2.827-0.343,4.447
				c-0.573,4.297-2.578,8.02-2.578,12.031c0,4.01-2.005,5.156-2.864,5.156c-0.717,0-7.39,0.199-9.594,0.265
				c-0.886,1.615-1.77,2.323-2.15,4.032c-0.573,2.578,11.171,1.719,13.176,0.859c2.005-0.859,2.864-7.734,2.864-10.598
				C255.362,439.678,256.222,437.673,257.367,435.095z"/>
		</g>
		<path style="fill:#FFFFFF;stroke:#263238;stroke-linecap:round;stroke-linejoin:round;stroke-miterlimit:10;" d="M256.508,333.695
			c0,0,1.432,24.921,1.432,36.951c0,12.031,3.151,42.966,3.151,46.69c0,3.724-0.859,14.322-1.432,20.624
			c-0.573,6.302-4.01,13.176-3.151,14.608c0.859,1.432,2.864,1.719,3.724,1.719c0.859,0,7.734-0.286,8.593-0.859
			c0.859-0.573,2.005-3.437,2.578-13.176c0.573-9.739-1.719-18.619-0.573-24.061c1.146-5.442,8.88-32.941,9.453-44.112
			c0.573-11.171-1.719-20.91-1.432-26.926c0.286-6.015,2.005-14.322,2.005-14.322l-24.348,0.859V333.695z"/>
		<path style="fill:#263238;stroke:#263238;stroke-linecap:round;stroke-linejoin:round;stroke-miterlimit:10;" d="M223.567,270.964
			c0,0-3.151,14.322-2.005,31.509c1.146,17.186,10.312,31.222,10.312,31.222s6.875,4.01,29.217,3.724
			c18.333-0.235,24.348-4.583,24.348-4.583s7.161-22.342,7.161-37.238c0-14.895-2.292-22.915-2.292-22.915l-65.595-6.875
			L223.567,270.964z"/>
		<path style="fill:#92E3A9;stroke:#263238;stroke-linecap:round;stroke-linejoin:round;stroke-miterlimit:10;" d="M253.071,176.151
			l-24.679,8.782c0,0-11.986,43.637-11.413,46.215c0.573,2.578,15.468,3.724,15.468,3.724l-11.458,36.092
			c0,0,2.578,6.015,7.734,8.593c5.156,2.578,18.046,5.729,18.046,5.729l4.297-6.875l2.578,7.161c0,0,16.041,1.719,27.785-2.865
			c11.744-4.583,14.609-6.302,14.609-6.302l-11.171-34.373l3.437-10.025l16.356,3.329c0,0-3.753-47.727-5.185-48.873
			s-30.649-8.593-32.654-9.166C264.815,176.724,256.508,175.005,253.071,176.151z"/>
		<path style="fill:#FFFFFF;stroke:#263238;stroke-linecap:round;stroke-linejoin:round;stroke-miterlimit:10;" d="M258.513,171.568
			c0,0-4.01-0.859-7.447,2.578c-3.437,3.437-7.448,19.764-7.448,19.764l6.875,0.573l-5.156,4.869l10.312,13.749l4.87,0.573
			l12.603-11.458l-3.151-6.015h10.312c0,0,0.859-14.609-2.578-20.624C274.267,169.563,258.513,171.568,258.513,171.568z"/>
		<g>
			<path style="fill:#FFFFFF;stroke:#263238;stroke-linecap:round;stroke-linejoin:round;stroke-miterlimit:10;" d="M269.676,127.38
				c0,0,4.297,3.151,6.588,7.734c1.432,2.864,2.292,7.161,4.01,8.02c1.719,0.859,5.156,0.286,5.156,2.578
				c0,2.292-2.864,3.724-2.864,4.583c0,0.859,0.573,13.176,0,15.468c-0.573,2.292-7.734,2.578-8.593,2.864
				c-0.859,0.286-16.9,55.57-16.9,55.57l-4.583,0.573l3.724-56.429c0,0-5.156,0-9.166-8.02c-4.01-8.02,4.869-15.181,10.598-21.77
				C263.374,131.964,269.676,127.38,269.676,127.38z"/>
			<path style="fill:#FFFFFF;stroke:#263238;stroke-linecap:round;stroke-linejoin:round;stroke-miterlimit:10;" d="M258.27,202.878
				l-3.969-5.557l-1.811,27.45l4.583-0.573c0,0,3.673-12.658,7.598-25.892L258.27,202.878z"/>
			<path style="fill:#263238;stroke:#263238;stroke-linecap:round;stroke-linejoin:round;stroke-miterlimit:10;" d="M252.776,158.03
				c0,0,4.87,0,6.015-3.724c1.146-3.724,1.146-5.442,1.146-5.442s8.307-11.744,12.604-17.759
				c4.297-6.015-1.432-11.171-10.026-11.171c-7.342,0-21.483,6.588-27.499,15.181c-6.015,8.593,0.573,22.056,5.156,26.353
				c4.583,4.297,9.166,6.015,11.744,4.583C254.494,164.618,252.776,158.03,252.776,158.03z"/>
			<path style="fill:#263238;stroke:#263238;stroke-linecap:round;stroke-linejoin:round;stroke-miterlimit:10;" d="
				M236.735,133.969c0,0-1.146-4.869-5.443-8.307c-4.297-3.437-14.608,0.286-19.192,8.307s4.583,15.754,5.442,18.332
				c0.859,2.578-2.864,2.578-3.437,5.729s3.151,5.156,5.442,6.302c2.292,1.146,0.573,1.146-0.573,5.729
				c-1.146,4.583,0.286,7.448,7.734,7.448c7.447,0,5.729-7.161,4.87-9.453c-0.859-2.292,1.719,0,3.724-4.583
				s-3.151-11.744-3.151-15.182C232.152,144.853,239.027,142.275,236.735,133.969z"/>
			<path style="fill:#263238;" d="M275.365,143.55c0.312,1.145,0.069,2.208-0.541,2.374c-0.611,0.166-1.358-0.627-1.67-1.772
				c-0.312-1.145-0.069-2.208,0.541-2.374C274.305,141.612,275.053,142.405,275.365,143.55z"/>
			<path style="fill:none;stroke:#263238;stroke-linecap:round;stroke-linejoin:round;stroke-miterlimit:10;" d="M269.962,140.557
				c0,0,2.005-4.297,5.442-2.578"/>
			<path style="fill:none;stroke:#263238;stroke-linecap:round;stroke-linejoin:round;stroke-miterlimit:10;" d="M281.993,154.592
				c0,0-3.151,1.719-5.729,0.573"/>
		</g>
		<path style="fill:#FFFFFF;stroke:#263238;stroke-linecap:round;stroke-linejoin:round;stroke-miterlimit:10;" d="M256.5,158.603
			c0,0-5.442-6.302-8.307-1.432c-2.865,4.869,1.146,8.88,5.156,9.453c4.01,0.573,5.442-2.005,5.442-2.005"/>
		<path style="fill:#92E3A9;stroke:#263238;stroke-linecap:round;stroke-linejoin:round;stroke-miterlimit:10;" d="M296.61,225.992
			l-41.534,4.01l-6.588,7.161c0,0,22.915,4.583,37.81,6.015c14.895,1.432,17.788,0.795,18.361-1.211
			c0.573-2.005-0.602-15.403-0.602-15.403"/>
		
			<line style="fill:none;stroke:#263238;stroke-linecap:round;stroke-linejoin:round;stroke-miterlimit:10;" x1="286.298" y1="227.138" x2="284.866" y2="203.65"/>
		
			<line style="fill:none;stroke:#263238;stroke-linecap:round;stroke-linejoin:round;stroke-miterlimit:10;" x1="233.593" y1="217.972" x2="236.743" y2="199.926"/>
		<path style="fill:#FFFFFF;stroke:#263238;stroke-linecap:round;stroke-linejoin:round;stroke-miterlimit:10;" d="M248.201,223.414
			c0,0-12.89-4.87-14.609-5.442c-1.719-0.573-5.156,0.859-8.02,2.864c-2.865,2.005-4.01,2.864-4.01,2.864
			c1.432,1.432,25.207,1.146,25.207,1.146S249.347,226.279,248.201,223.414z"/>
		<path style="fill:#FFFFFF;stroke:#263238;stroke-linecap:round;stroke-linejoin:round;stroke-miterlimit:10;" d="M272.262,223.701
			c0,0,8.307-1.719,9.739-0.859c1.432,0.859,7.448,3.151,7.448,3.151l-7.448,2.864l-8.307,1.432L272.262,223.701z"/>
		<path style="fill:#92E3A9;stroke:#263238;stroke-linecap:round;stroke-linejoin:round;stroke-miterlimit:10;" d="M276.273,230.289
			l-2.292-7.734l-48.982,1.146c0,0-6.302-2.005-8.88,3.437c-2.578,5.442-4.583,14.322,0.573,16.327
			C221.848,245.47,273.695,230.575,276.273,230.289z"/>
		
			<line style="fill:#FFFFFF;stroke:#263238;stroke-linecap:round;stroke-linejoin:round;stroke-miterlimit:10;" x1="251.638" y1="237.736" x2="249.92" y2="275.833"/>
		<path style="fill:#263238;stroke:#263238;stroke-linecap:round;stroke-linejoin:round;stroke-miterlimit:10;" d="M270.257,433.663
			c-0.286,5.442-1.146,12.031-2.864,13.749c-1.719,1.719-9.453,0-9.453,0l-0.545,0.173c-0.747,2.44-1.289,4.312-0.887,4.982
			c0.859,1.432,2.864,1.719,3.724,1.719c0.859,0,7.734-0.286,8.593-0.859c0.859-0.573,2.005-3.437,2.578-13.176
			c0.315-5.348-0.234-10.432-0.603-14.835C270.72,426.371,270.489,429.269,270.257,433.663z"/>
	</g>
</g>
</svg>
